<?xml version="1.0" standalone="no"?>
<!DOCTYPE svg PUBLIC "-//W3C//DTD SVG 20010904//EN"
 "http://www.w3.org/TR/2001/REC-SVG-20010904/DTD/svg10.dtd">
<svg version="1.0" xmlns="http://www.w3.org/2000/svg"
 width="700.000000pt" height="191.000000pt" viewBox="0 0 700.000000 191.000000"
 preserveAspectRatio="xMidYMid meet">

<g transform="translate(0.000000,191.000000) scale(0.100000,-0.100000)"
fill="#000000" stroke="none">
<path d="M3005 1894 c-33 -2 -145 -8 -250 -14 -1253 -70 -2299 -340 -2634
-680 -451 -458 408 -933 2029 -1119 827 -95 1873 -95 2700 0 1621 186 2480
661 2029 1119 -333 339 -1282 586 -2609 681 -146 10 -1135 20 -1265 13z m-6
-544 c46 -13 81 -48 81 -80 0 -48 -68 -90 -145 -90 -41 1 -111 34 -125 60 -9
16 -9 29 -1 49 24 56 111 84 190 61z m-1541 -45 c144 -34 212 -102 191 -193
-14 -65 -94 -118 -216 -143 l-62 -13 112 -82 c137 -102 161 -114 226 -114 l51
0 0 -50 0 -50 -168 0 -169 0 -172 145 c-159 133 -176 145 -212 145 l-40 0 3
-92 3 -93 58 -3 57 -3 0 -49 0 -50 -255 0 -255 0 0 50 0 50 44 0 c81 0 76 -14
76 231 l0 219 -26 10 c-14 6 -41 10 -60 10 -34 0 -34 0 -34 45 l0 45 393 0
c311 0 405 -3 455 -15z m2632 -153 c17 -14 21 -25 17 -44 -8 -32 -45 -48 -112
-48 -58 0 -63 -4 -40 -34 8 -11 15 -38 15 -59 0 -34 -6 -46 -40 -78 -60 -57
-141 -79 -294 -79 -119 0 -161 -9 -141 -29 6 -5 107 -19 225 -30 244 -23 309
-38 357 -86 38 -38 41 -57 14 -101 -27 -44 -107 -80 -221 -100 -117 -20 -424
-15 -505 8 -69 20 -112 44 -126 69 -16 31 16 69 81 95 l53 21 -34 12 c-18 6
-43 21 -56 33 -42 39 -26 72 57 117 l52 28 -34 21 c-40 25 -68 70 -68 109 0
132 285 214 510 147 47 -14 54 -14 69 0 51 46 179 62 221 28z m-1710 -28 c33
-10 67 -29 87 -49 l33 -33 1 -114 c1 -161 2 -162 72 -166 l57 -3 0 -44 c0 -53
-7 -56 -125 -56 -83 -1 -140 11 -181 38 -18 11 -29 10 -78 -7 -80 -27 -188
-39 -264 -29 -188 26 -240 161 -87 230 49 22 171 45 288 54 l87 7 0 34 c0 45
-29 64 -98 64 -51 0 -56 -3 -97 -45 -49 -50 -76 -60 -143 -52 -53 6 -94 42
-85 76 12 48 106 94 228 111 82 12 239 4 305 -16z m688 -171 l2 -193 55 0 55
0 0 -50 0 -50 -235 0 -235 0 0 50 0 50 55 0 55 0 0 124 0 125 -52 3 -53 3 -3
46 -3 46 88 6 c48 4 111 13 138 21 28 8 68 13 90 12 l40 -1 3 -192z m1664 167
c46 -14 74 -30 92 -51 25 -29 26 -36 26 -150 0 -66 5 -129 10 -140 9 -15 22
-19 65 -19 l55 0 0 -44 c0 -55 -7 -57 -128 -57 -84 0 -157 16 -189 43 -10 8
-20 8 -38 0 -103 -47 -291 -58 -372 -22 -60 26 -90 54 -98 91 -21 93 107 152
378 174 l87 7 0 29 c0 47 -31 69 -96 69 -52 0 -58 -3 -102 -45 -66 -64 -155
-74 -208 -24 -32 30 -30 45 9 84 78 78 342 107 509 55z m668 -1 c0 -24 4 -30
15 -25 92 35 168 50 255 50 85 1 101 -2 153 -28 l58 -28 82 27 c112 38 256 41
334 6 85 -38 87 -42 93 -210 l5 -146 55 -5 55 -5 0 -45 0 -45 -222 -3 -223 -2
0 50 0 50 39 0 c26 0 41 5 45 16 3 9 6 60 6 115 0 86 -3 102 -20 119 -26 26
-79 26 -158 -1 l-63 -21 3 -112 3 -111 40 -5 c40 -5 40 -5 43 -52 l3 -48 -210
0 -211 0 0 50 c0 50 0 50 33 50 51 0 57 13 57 125 0 136 -9 150 -94 142 -34
-3 -80 -13 -104 -23 l-43 -17 3 -111 3 -111 43 -3 42 -3 0 -50 0 -49 -222 2
-223 3 0 45 0 45 50 3 c27 2 53 9 57 15 4 7 8 62 8 124 l0 112 -57 3 -58 3 0
45 0 44 91 13 c50 6 107 16 125 21 19 6 51 11 72 11 35 1 37 -1 37 -30z"/>
<path d="M1000 1129 l0 -81 153 4 c121 3 159 7 184 21 64 34 50 103 -25 125
-22 7 -99 12 -176 12 l-136 0 0 -81z"/>
<path d="M3556 1029 c-33 -26 -36 -77 -5 -105 33 -30 129 -27 163 5 33 31 33
65 1 96 -33 33 -119 36 -159 4z"/>
<path d="M3485 608 l-29 -25 27 -17 c56 -37 349 -38 385 -2 34 33 -19 46 -249
61 -102 7 -106 6 -134 -17z"/>
<path d="M2177 859 c-32 -5 -70 -14 -85 -21 -35 -17 -41 -53 -11 -69 25 -13
117 -7 162 10 23 9 27 16 27 51 0 45 4 43 -93 29z"/>
<path d="M4527 859 c-75 -11 -111 -29 -115 -56 -5 -32 30 -46 97 -40 87 8 111
23 111 69 0 42 4 41 -93 27z"/>
</g>
</svg>
